<?xml version="1.0" encoding="UTF-8"?>
<svg id="Layer_1" data-name="Layer 1" xmlns="http://www.w3.org/2000/svg" xmlns:xlink="http://www.w3.org/1999/xlink" viewBox="0 0 980.93 450.55">
  <defs>
    <style>
      .cls-1 {
        stroke: url(#radial-gradient);
      }

      .cls-1, .cls-2, .cls-3, .cls-4, .cls-5, .cls-6, .cls-7, .cls-8, .cls-9, .cls-10, .cls-11, .cls-12 {
        stroke-miterlimit: 10;
      }

      .cls-1, .cls-9, .cls-11, .cls-12 {
        fill: none;
      }

      .cls-2 {
        fill: url(#linear-gradient-5);
      }

      .cls-2, .cls-3, .cls-4, .cls-5, .cls-6, .cls-7, .cls-8, .cls-10 {
        stroke: #eac97c;
      }

      .cls-3 {
        fill: url(#linear-gradient-7);
      }

      .cls-4 {
        fill: url(#linear-gradient-8);
      }

      .cls-5 {
        fill: url(#linear-gradient-2);
      }

      .cls-6 {
        fill: url(#linear-gradient-4);
      }

      .cls-7 {
        fill: url(#linear-gradient-3);
      }

      .cls-8 {
        fill: url(#linear-gradient-6);
      }

      .cls-9 {
        stroke: url(#linear-gradient-10);
      }

      .cls-10 {
        fill: url(#linear-gradient);
      }

      .cls-11 {
        stroke: url(#linear-gradient-9);
      }

      .cls-13 {
        fill: #fff;
      }

      .cls-14 {
        fill: url(#linear-gradient-11);
      }

      .cls-15 {
        fill: #f8bdba;
      }

      .cls-16 {
        fill: #d07080;
      }

      .cls-12 {
        stroke: url(#radial-gradient-2);
      }
    </style>
    <linearGradient id="linear-gradient" x1="136.03" y1="254.04" x2="136.03" y2="117.6" gradientUnits="userSpaceOnUse">
      <stop offset="0" stop-color="#d07080"/>
      <stop offset=".45" stop-color="#eaa2a5"/>
      <stop offset=".68" stop-color="#f8bdba"/>
    </linearGradient>
    <linearGradient id="linear-gradient-2" x1="250.84" x2="250.84" xlink:href="#linear-gradient"/>
    <linearGradient id="linear-gradient-3" x1="337.76" x2="337.76" xlink:href="#linear-gradient"/>
    <linearGradient id="linear-gradient-4" x1="433.14" x2="433.14" y2="114.97" xlink:href="#linear-gradient"/>
    <linearGradient id="linear-gradient-5" x1="564.03" y1="256.67" x2="564.03" xlink:href="#linear-gradient"/>
    <linearGradient id="linear-gradient-6" x1="696.88" x2="696.88" y2="114.97" xlink:href="#linear-gradient"/>
    <linearGradient id="linear-gradient-7" x1="770.21" y1="157.36" x2="770.21" y2="113.01" xlink:href="#linear-gradient"/>
    <linearGradient id="linear-gradient-8" x1="839.45" y1="256.67" x2="839.45" y2="114.97" xlink:href="#linear-gradient"/>
    <linearGradient id="linear-gradient-9" x1="218.56" y1="33.04" x2="464.81" y2="33.04" gradientUnits="userSpaceOnUse">
      <stop offset="0" stop-color="#231f20" stop-opacity="0"/>
      <stop offset=".02" stop-color="#2c2724" stop-opacity=".05"/>
      <stop offset=".12" stop-color="#584c38" stop-opacity=".27"/>
      <stop offset=".23" stop-color="#7f6d4a" stop-opacity=".46"/>
      <stop offset=".35" stop-color="#a08959" stop-opacity=".63"/>
      <stop offset=".46" stop-color="#baa066" stop-opacity=".76"/>
      <stop offset=".58" stop-color="#cfb26f" stop-opacity=".87"/>
      <stop offset=".7" stop-color="#debf76" stop-opacity=".94"/>
      <stop offset=".84" stop-color="#e7c67a" stop-opacity=".99"/>
      <stop offset="1" stop-color="#eac97c"/>
    </linearGradient>
    <linearGradient id="linear-gradient-10" x1="518.35" y1="33.04" x2="764.59" y2="33.04" gradientUnits="userSpaceOnUse">
      <stop offset="0" stop-color="#eac97c"/>
      <stop offset=".12" stop-color="#e6c57a" stop-opacity=".98"/>
      <stop offset=".25" stop-color="#dbbc75" stop-opacity=".93"/>
      <stop offset=".39" stop-color="#c9ad6d" stop-opacity=".84"/>
      <stop offset=".52" stop-color="#b09761" stop-opacity=".71"/>
      <stop offset=".66" stop-color="#8f7c52" stop-opacity=".55"/>
      <stop offset=".8" stop-color="#685a40" stop-opacity=".35"/>
      <stop offset=".94" stop-color="#3a322a" stop-opacity=".12"/>
      <stop offset="1" stop-color="#231f20" stop-opacity="0"/>
    </linearGradient>
    <linearGradient id="linear-gradient-11" x1="744.3" y1="317.68" x2="804.94" y2="317.68" gradientUnits="userSpaceOnUse">
      <stop offset="0" stop-color="#d06f80"/>
      <stop offset=".05" stop-color="#d9818e"/>
      <stop offset=".14" stop-color="#e4979e"/>
      <stop offset=".24" stop-color="#eda8aa"/>
      <stop offset=".36" stop-color="#f3b4b3"/>
      <stop offset=".53" stop-color="#f7bbb8"/>
      <stop offset="1" stop-color="#f8bdba"/>
    </linearGradient>
    <radialGradient id="radial-gradient" cx="464.77" cy="390.44" fx="464.77" fy="390.44" r="250.66" gradientTransform="translate(-152.15 .03) scale(1.38 1)" gradientUnits="userSpaceOnUse">
      <stop offset="0" stop-color="#eac97c"/>
      <stop offset=".38" stop-color="#e8c77b" stop-opacity=".99"/>
      <stop offset=".52" stop-color="#e2c278" stop-opacity=".96"/>
      <stop offset=".61" stop-color="#d8ba73" stop-opacity=".91"/>
      <stop offset=".69" stop-color="#caad6d" stop-opacity=".84"/>
      <stop offset=".76" stop-color="#b79d64" stop-opacity=".75"/>
      <stop offset=".82" stop-color="#a08a59" stop-opacity=".63"/>
      <stop offset=".87" stop-color="#84724d" stop-opacity=".49"/>
      <stop offset=".92" stop-color="#64573e" stop-opacity=".33"/>
      <stop offset=".97" stop-color="#41392e" stop-opacity=".15"/>
      <stop offset="1" stop-color="#231f20" stop-opacity="0"/>
    </radialGradient>
    <radialGradient id="radial-gradient-2" cx="464.47" cy="450.02" fx="464.47" fy="450.02" r="250.66" xlink:href="#radial-gradient"/>
  </defs>
  <g>
    <path class="cls-10" d="M85.39,254.04c-1.21,0-1.62-.2-1.62-1.42v-3.03c0-1.21.4-1.62,1.62-1.62l10.51-.2c4.85-.2,5.05-1.42,5.05-16.78v-90.35c0-15.36-.4-16.58-5.05-16.78l-10.51-.2c-1.21,0-1.62-.4-1.62-1.62v-3.03c0-1.21.4-1.42,1.62-1.42h91.57c1.62,0,1.82.4,1.82,1.62v35.17c0,1.42-.2,1.82-1.62,1.82h-3.03c-1.42,0-1.62-.4-1.62-1.82l-.2-2.22c-.4-17.99-6.87-27.49-23.04-27.49h-26.68v54.58h15.56c10.92,0,14.55-5.86,14.76-14.55l.2-2.02c0-1.21.2-1.62,1.62-1.62h2.63c1.42,0,1.62.4,1.62,1.62v40.83c0,1.42-.2,1.82-1.62,1.82h-2.63c-1.42,0-1.62-.4-1.62-1.82l-.2-2.83c-.2-8.29-3.84-14.76-14.76-14.76h-15.56v61.04h34.97c17.59,0,22.64-12.94,24.05-26.68l.4-3.03c0-1.42.4-1.82,1.42-1.82h3.23c1.42,0,1.62.4,1.62,1.82l-2.02,35.17c0,1.21-.2,1.62-1.82,1.62h-99.04Z"/>
    <path class="cls-5" d="M201.22,254.04c-1.21,0-1.62-.2-1.62-1.42v-3.03c0-1.21.4-1.62,1.62-1.62l10.51-.2c4.85-.2,5.05-1.42,5.05-16.78v-90.35c0-15.36-.2-16.58-5.05-16.78l-10.51-.2c-1.21,0-1.62-.4-1.62-1.62v-3.03c0-1.21.4-1.42,1.62-1.42h55.59c1.21,0,1.62.2,1.62,1.42v3.03c0,1.21-.4,1.62-1.62,1.62l-13.34.2c-4.85.2-5.05,1.42-5.05,16.78v106.32h32.75c16.78,0,23.65-12.73,24.66-36.38,0-1.42.2-1.82,1.42-1.82h3.23c1.42,0,1.62.4,1.62,1.82l-2.02,41.84c0,1.21-.2,1.62-1.82,1.62h-97.02Z"/>
    <path class="cls-7" d="M311.38,254.04c-1.21,0-1.62-.2-1.62-1.42v-3.03c0-1.21.4-1.62,1.62-1.62l10.51-.2c4.85-.2,5.05-1.42,5.05-16.78v-90.35c0-15.36-.2-16.58-5.05-16.78l-10.51-.2c-1.21,0-1.62-.4-1.62-1.62v-3.03c0-1.21.4-1.42,1.62-1.42h52.76c1.21,0,1.62.2,1.62,1.42v3.03c0,1.21-.4,1.62-1.62,1.62l-10.51.2c-4.85.2-5.05,1.42-5.05,16.78v90.35c0,15.36.2,16.57,5.05,16.78l10.51.2c1.21,0,1.62.4,1.62,1.62v3.03c0,1.21-.4,1.42-1.62,1.42h-52.76Z"/>
    <path class="cls-6" d="M446.59,254.04c-1.11,0-1.47-.2-1.47-1.42v-3.03c0-1.21.37-1.42,1.47-1.62l6.26-.2c4.05-.2,6.26-.81,6.26-4.65,0-3.44-1.66-9.5-5.16-19.81l-6.27-19h-42.38l-1.11,3.23c-2.95,9.1-6.08,20.01-6.08,28.3,0,7.68,3.13,11.52,9.58,11.93l5.16.2c1.11.2,1.47.4,1.47,1.62v3.03c0,1.21-.37,1.42-1.47,1.42h-39.99c-1.11,0-1.47-.2-1.47-1.42v-3.23c0-1.21.55-1.42,1.47-1.42l2.21-.4c5.16-.61,6.63-2.02,11.24-12.73,2.39-5.66,6.45-17.18,9.4-25.67l32.25-92.58c.37-1.01.55-1.62,2.03-1.62h4.98c1.29,0,1.66.2,2.03,1.62l38.7,106.73c7.92,22.23,9.4,24.05,15.11,24.46l2.58.2c1.1.2,1.47.4,1.47,1.62v3.03c0,1.21-.37,1.42-1.47,1.42h-46.8ZM426.88,141.05h-.18l-18.98,56.4h37.77l-18.61-56.4Z"/>
    <path class="cls-2" d="M602.99,256.67c-1.14,0-1.52-.4-2.28-1.42l-75.06-112.18h-.38v65.09c0,34.56,4.75,39.01,15.96,39.62l6.08.2c1.14.2,1.52.4,1.52,1.62v3.03c0,1.21-.38,1.42-1.52,1.42h-45.04c-1.14,0-1.52-.2-1.52-1.42v-3.03c0-1.21.38-1.42,1.52-1.62l3.23-.2c7.79-.61,12.16-5.26,12.16-39.62v-65.9c0-16.17-.76-17.99-5.7-18.19l-8.74-.2c-1.14,0-1.52-.4-1.52-1.62v-3.23c0-1.21.38-1.42,1.52-1.42h28.88c1.14,0,1.71.4,2.47,1.62l67.84,103.69h.38v-59.43c0-34.56-4.94-39.01-16.15-39.62l-6.08-.2c-1.14-.2-1.52-.4-1.52-1.62v-3.03c0-1.21.38-1.42,1.52-1.42h45.23c1.14,0,1.52.2,1.52,1.42v3.03c0,1.21-.38,1.42-1.52,1.62l-3.42.2c-7.79.61-12.16,5.26-12.16,39.62v91.77c0,1.01-.57,1.42-1.9,1.42h-5.32Z"/>
    <path class="cls-8" d="M711.23,254.04c-1.18,0-1.57-.2-1.57-1.42v-3.03c0-1.21.39-1.42,1.57-1.62l6.68-.2c4.33-.2,6.68-.81,6.68-4.65,0-3.44-1.77-9.5-5.5-19.81l-6.68-19h-45.21l-1.18,3.23c-3.15,9.1-6.49,20.01-6.49,28.3,0,7.68,3.34,11.52,10.22,11.93l5.5.2c1.18.2,1.57.4,1.57,1.62v3.03c0,1.21-.39,1.42-1.57,1.42h-42.66c-1.18,0-1.57-.2-1.57-1.42v-3.23c0-1.21.59-1.42,1.57-1.42l2.36-.4c5.5-.61,7.08-2.02,11.99-12.73,2.55-5.66,6.88-17.18,10.03-25.67l34.4-92.58c.39-1.01.59-1.62,2.16-1.62h5.31c1.38,0,1.77.2,2.16,1.62l41.28,106.73c8.45,22.23,10.03,24.05,16.12,24.46l2.75.2c1.18.2,1.57.4,1.57,1.62v3.03c0,1.21-.39,1.42-1.57,1.42h-49.93ZM690.2,141.05h-.2l-20.25,56.4h40.3l-19.86-56.4Z"/>
    <path class="cls-3" d="M760.47,157.25c-1.21.2-2.02.2-2.02-.81,0,0,12.09-10.02,12.27-18.37.04-2.02-2.97-3.64-2.97-3.64-5.25,0-9.9-2.83-9.9-10.31s3.84-11.12,10.92-11.12c10.71,0,13.83,11.21,13.83,15.41,0,7.17-8.78,26.21-22.12,28.84Z"/>
    <path class="cls-4" d="M837.12,256.67c-12.33,0-23.25-2.83-31.13-7.48l-.61,4.04c0,1.21-.2,1.82-1.62,1.82h-2.22c-1.42,0-1.62-.61-1.62-1.82l-1.82-42.04c0-1.42.2-1.82,1.62-1.82h3.03c1.21,0,1.42.4,1.62,1.82l.4,4.65c1.21,16.98,12.33,34.16,32.75,34.16,18.19,0,26.88-8.89,26.88-22.44,0-18.8-13.34-25.87-30.93-35.37-16.57-9.1-32.34-17.99-32.34-41.03s15.97-36.18,38-36.18c10.11,0,20.01,3.23,26.68,7.48l.61-4.04c.2-1.42.4-1.82,1.82-1.82h2.22c1.41,0,1.62.61,1.62,1.82v36.18c0,1.21-.2,1.62-1.82,1.62h-3.03c-1.21,0-1.42-.4-1.62-1.62v-1.21c-.81-17.79-11.93-31.94-28.3-31.94-14.35,0-21.02,8.29-21.02,19.81,0,15.36,12.73,22.64,27.69,30.52,19.2,10.51,36.79,19.61,36.79,45.28s-18.19,39.62-43.66,39.62Z"/>
  </g>
  <path class="cls-13" d="M249.54,423.62c-.14,0-.19-.02-.19-.16v-.35c0-.14.05-.19.19-.19l1.21-.02c.56-.02.58-.16.58-1.94v-10.44c0-1.78-.02-1.91-.58-1.94l-1.21-.02c-.14,0-.19-.05-.19-.19v-.35c0-.14.05-.16.19-.16h6.42c.14,0,.19.02.19.16v.35c0,.14-.05.19-.19.19l-1.54.02c-.56.02-.58.16-.58,1.94v12.28h3.78c1.94,0,2.73-1.47,2.85-4.2,0-.16.02-.21.16-.21h.37c.16,0,.19.05.19.21l-.23,4.83c0,.14-.02.19-.21.19h-11.21Z"/>
  <path class="cls-13" d="M285.86,408.56c-.94.07-1.33.6-1.33,4.5v4.22c0,4.22-1.4,6.36-5.62,6.36-3.7,0-5.97-1.74-5.97-5.62v-7.55c0-1.74-.02-1.88-.57-1.91l-1.19-.02c-.14,0-.21-.05-.21-.18v-.34c0-.14.07-.16.21-.16h5.97c.14,0,.18.02.18.16v.34c0,.14-.05.18-.18.18l-1.19.02c-.55.02-.57.16-.57,1.91v7.23c0,3.28.87,4.94,4.15,4.94,3.05,0,4.04-1.68,4.04-5.33v-4.25c0-3.92-.41-4.43-1.77-4.5l-.76-.02c-.14-.02-.18-.05-.18-.18v-.34c0-.14.05-.16.18-.16h5.23c.14,0,.18.02.18.16v.34c0,.14-.05.16-.18.18l-.41.02Z"/>
  <path class="cls-13" d="M306.21,423.49c-.14,0-.18-.02-.18-.16v-.34c0-.14.05-.18.18-.18l.73-.02c.34,0,.5-.12.5-.34,0-.39-.41-1.1-1.33-2.46l-2.13-3.15h-.02l-1.58,2.39c-.67,1.01-1.15,1.88-1.15,2.59,0,.62.34.94.99.96l.5.02c.14.02.18.05.18.18v.34c0,.14-.05.16-.18.16h-5.19c-.14,0-.18-.02-.18-.14v-.37c0-.11.05-.14.18-.16l.25-.02c.62-.07.9-.12,1.56-.92.5-.67,1.15-1.54,1.79-2.48l2.32-3.33-3.17-4.57c-1.86-2.66-2.04-2.73-2.69-2.8l-.18-.02c-.14-.02-.18-.05-.18-.18v-.34c0-.14.05-.16.18-.16h5.74c.14,0,.18.02.18.16v.34c0,.14-.05.18-.18.18l-.73.02c-.34,0-.53.11-.53.34,0,.39.44,1.08,1.35,2.46l1.81,2.71h.05l1.29-1.95c.67-1.01,1.15-1.88,1.15-2.59,0-.62-.34-.94-.99-.96l-.48-.02c-.14-.02-.18-.05-.18-.18v-.34c0-.14.05-.16.18-.16h5.16c.14,0,.18.02.18.14v.37c0,.12-.05.14-.18.16l-.25.02c-.67.07-.94.16-1.61,1.01-.44.57-1.08,1.42-1.74,2.34l-2.07,2.92,3.49,5.03c1.86,2.69,2.04,2.73,2.69,2.8l.21.02c.14.02.18.05.18.18v.34c0,.14-.05.16-.18.16h-5.74Z"/>
  <path class="cls-13" d="M337.82,408.56c-.94.07-1.33.6-1.33,4.5v4.22c0,4.22-1.4,6.36-5.62,6.36-3.7,0-5.97-1.74-5.97-5.62v-7.55c0-1.74-.02-1.88-.57-1.91l-1.19-.02c-.14,0-.21-.05-.21-.18v-.34c0-.14.07-.16.21-.16h5.97c.14,0,.18.02.18.16v.34c0,.14-.05.18-.18.18l-1.19.02c-.55.02-.57.16-.57,1.91v7.23c0,3.28.87,4.94,4.15,4.94,3.05,0,4.04-1.68,4.04-5.33v-4.25c0-3.92-.41-4.43-1.77-4.5l-.76-.02c-.14-.02-.18-.05-.18-.18v-.34c0-.14.05-.16.18-.16h5.23c.14,0,.18.02.18.16v.34c0,.14-.05.16-.18.18l-.41.02Z"/>
  <path class="cls-13" d="M356.98,415.22v.02c1.84.53,3.17,1.56,3.28,4.38.14,2.36.37,3.17,1.12,3.17.39,0,.67-.3.85-.67.05-.12.09-.16.21-.12l.21.09c.09.05.11.12.05.25-.28.73-.83,1.29-1.95,1.29-2.34,0-2.73-1.84-2.89-3.97-.16-2.82-.64-4.02-2.75-4.02h-1.49v5.07c0,1.74.02,1.88.57,1.91l1.19.02c.14,0,.18.05.18.18v.34c0,.14-.05.16-.18.16h-5.99c-.14,0-.18-.02-.18-.16v-.34c0-.14.05-.18.18-.18l1.19-.02c.55-.02.57-.16.57-1.91v-10.26c0-1.74-.02-1.88-.57-1.91l-1.19-.02c-.14,0-.18-.05-.18-.18v-.34c0-.14.05-.16.18-.16h5.72c3.12,0,5.88.85,5.88,3.72,0,2.07-1.63,3.21-3.99,3.65ZM355.28,408.65h-1.68v6.22h1.47c2.25,0,3.26-.94,3.26-3.19,0-2.46-1.13-3.03-3.05-3.03Z"/>
  <path class="cls-13" d="M377.24,423.49c-.14,0-.18-.02-.18-.16v-.34c0-.14.05-.18.18-.18l1.19-.02c.55-.02.57-.16.57-1.91v-4.25l-2.92-5.12c-1.49-2.62-1.72-2.75-2.36-2.8l-.16-.02c-.14-.02-.18-.05-.18-.18v-.34c0-.14.05-.16.18-.16h5.6c.14,0,.18.02.18.16v.34c0,.14-.05.18-.18.18l-.69.02c-.32,0-.5.14-.5.39,0,.37.18,1.06.94,2.41l2.11,3.88h.02l1.56-3.01c.53-.99.87-1.88.87-2.59s-.28-1.06-.99-1.08l-.6-.02c-.14-.02-.18-.05-.18-.18v-.34c0-.14.05-.16.18-.16h4.96c.16,0,.21.02.21.14v.37c0,.12-.05.14-.21.16l-.21.02c-.57.05-.8.23-1.4,1.1-.48.69-.92,1.49-1.4,2.34l-2.41,4.22v4.52c0,1.74.02,1.88.6,1.91l1.17.02c.14,0,.18.05.18.18v.34c0,.14-.05.16-.18.16h-5.97Z"/>
  <path class="cls-13" d="M411,423.49c-.14,0-.18-.02-.18-.16v-.34c0-.14.05-.18.18-.18l1.19-.02c.55-.02.57-.16.57-1.91v-10.26c0-1.74-.02-1.88-.57-1.91l-1.19-.02c-.14,0-.18-.05-.18-.18v-.34c0-.14.05-.16.18-.16h5.99c.14,0,.18.02.18.16v.34c0,.14-.05.18-.18.18l-1.19.02c-.55.02-.57.16-.57,1.91v10.26c0,1.74.02,1.88.57,1.91l1.19.02c.14,0,.18.05.18.18v.34c0,.14-.05.16-.18.16h-5.99Z"/>
  <path class="cls-13" d="M441.02,423.64c-.14,0-.18-.05-.27-.16l-9.07-12.74h-.05v7.39c0,3.92.57,4.43,1.93,4.5l.73.02c.14.02.18.05.18.18v.34c0,.14-.05.16-.18.16h-5.44c-.14,0-.18-.02-.18-.16v-.34c0-.14.05-.16.18-.18l.39-.02c.94-.07,1.47-.6,1.47-4.5v-7.48c0-1.84-.09-2.04-.69-2.07l-1.06-.02c-.14,0-.18-.05-.18-.18v-.37c0-.14.05-.16.18-.16h3.49c.14,0,.21.05.3.18l8.19,11.77h.05v-6.75c0-3.92-.6-4.43-1.95-4.5l-.73-.02c-.14-.02-.18-.05-.18-.18v-.34c0-.14.05-.16.18-.16h5.46c.14,0,.18.02.18.16v.34c0,.14-.05.16-.18.18l-.41.02c-.94.07-1.47.6-1.47,4.5v10.42c0,.12-.07.16-.23.16h-.64Z"/>
  <path class="cls-13" d="M468.94,423.49c-.14,0-.18-.02-.18-.16v-.34c0-.14.05-.18.18-.18l1.19-.02c.55-.02.57-.16.57-1.91v-10.26c0-1.74-.05-1.88-.57-1.91l-1.19-.02c-.14,0-.18-.05-.18-.18v-.34c0-.14.05-.16.18-.16h10.4c.18,0,.21.05.21.18v3.99c0,.16-.02.21-.18.21h-.34c-.16,0-.18-.05-.18-.21l-.02-.25c-.05-2.04-.78-3.12-2.62-3.12h-3.03v6.2h1.77c1.24,0,1.65-.67,1.68-1.65l.02-.23c0-.14.02-.18.18-.18h.3c.16,0,.18.05.18.18v4.64c0,.16-.02.21-.18.21h-.3c-.16,0-.18-.05-.18-.21l-.02-.32c-.02-.94-.44-1.68-1.68-1.68h-1.77v6.93h3.97c2,0,2.57-1.47,2.73-3.03l.05-.34c0-.16.05-.21.16-.21h.37c.16,0,.18.05.18.21l-.23,3.99c0,.14-.02.18-.21.18h-11.25Z"/>
  <path class="cls-13" d="M505.74,408.56c-.6.05-.85.37-1.33,1.47-.23.48-.83,2.04-1.15,2.94l-3.83,10.49c-.05.11-.09.18-.28.18h-.62c-.16,0-.21-.02-.25-.18l-4.68-12.12c-1.03-2.66-1.1-2.75-1.88-2.78l-.27-.02c-.14-.02-.18-.05-.18-.18v-.34c0-.14.05-.16.18-.16h5.85c.14,0,.18.02.18.16v.34c0,.14-.05.18-.18.18l-.78.02c-.53,0-.78.09-.78.55,0,.41.18,1.08.57,2.23l3.24,9.34h.02l2.66-7.6c.34-1.01.73-2.23.73-3.17,0-.87-.41-1.33-1.22-1.35l-.64-.02c-.14,0-.18-.05-.18-.18v-.34c0-.14.05-.16.18-.16h4.98c.14,0,.18.02.18.16v.34c0,.14-.05.16-.18.18l-.34.02Z"/>
  <path class="cls-13" d="M518.68,423.49c-.14,0-.18-.02-.18-.16v-.34c0-.14.05-.18.18-.18l1.19-.02c.55-.02.57-.16.57-1.91v-10.26c0-1.74-.05-1.88-.57-1.91l-1.19-.02c-.14,0-.18-.05-.18-.18v-.34c0-.14.05-.16.18-.16h10.4c.18,0,.21.05.21.18v3.99c0,.16-.02.21-.18.21h-.34c-.16,0-.18-.05-.18-.21l-.02-.25c-.05-2.04-.78-3.12-2.62-3.12h-3.03v6.2h1.77c1.24,0,1.65-.67,1.68-1.65l.02-.23c0-.14.02-.18.18-.18h.3c.16,0,.18.05.18.18v4.64c0,.16-.02.21-.18.21h-.3c-.16,0-.18-.05-.18-.21l-.02-.32c-.02-.94-.44-1.68-1.68-1.68h-1.77v6.93h3.97c2,0,2.57-1.47,2.73-3.03l.05-.34c0-.16.05-.21.16-.21h.37c.16,0,.18.05.18.21l-.23,3.99c0,.14-.02.18-.21.18h-11.25Z"/>
  <path class="cls-13" d="M549.22,415.22v.02c1.84.53,3.17,1.56,3.28,4.38.14,2.36.37,3.17,1.12,3.17.39,0,.67-.3.85-.67.05-.12.09-.16.21-.12l.21.09c.09.05.11.12.05.25-.28.73-.83,1.29-1.95,1.29-2.34,0-2.73-1.84-2.89-3.97-.16-2.82-.64-4.02-2.75-4.02h-1.49v5.07c0,1.74.02,1.88.57,1.91l1.19.02c.14,0,.18.05.18.18v.34c0,.14-.05.16-.18.16h-5.99c-.14,0-.18-.02-.18-.16v-.34c0-.14.05-.18.18-.18l1.19-.02c.55-.02.57-.16.57-1.91v-10.26c0-1.74-.02-1.88-.57-1.91l-1.19-.02c-.14,0-.18-.05-.18-.18v-.34c0-.14.05-.16.18-.16h5.72c3.12,0,5.88.85,5.88,3.72,0,2.07-1.63,3.21-3.99,3.65ZM547.53,408.65h-1.68v6.22h1.47c2.25,0,3.26-.94,3.26-3.19,0-2.46-1.13-3.03-3.05-3.03Z"/>
  <path class="cls-13" d="M568.22,423.49c-.14,0-.18-.02-.18-.16v-.34c0-.14.05-.18.18-.18l1.19-.02c.55-.02.57-.16.57-1.91v-4.25l-2.92-5.12c-1.49-2.62-1.72-2.75-2.36-2.8l-.16-.02c-.14-.02-.18-.05-.18-.18v-.34c0-.14.05-.16.18-.16h5.6c.14,0,.18.02.18.16v.34c0,.14-.05.18-.18.18l-.69.02c-.32,0-.5.14-.5.39,0,.37.18,1.06.94,2.41l2.11,3.88h.02l1.56-3.01c.53-.99.87-1.88.87-2.59s-.28-1.06-.99-1.08l-.6-.02c-.14-.02-.18-.05-.18-.18v-.34c0-.14.05-.16.18-.16h4.96c.16,0,.21.02.21.14v.37c0,.12-.05.14-.21.16l-.21.02c-.57.05-.8.23-1.4,1.1-.48.69-.92,1.49-1.4,2.34l-2.41,4.22v4.52c0,1.74.02,1.88.6,1.91l1.17.02c.14,0,.18.05.18.18v.34c0,.14-.05.16-.18.16h-5.97Z"/>
  <path class="cls-13" d="M609.82,423.49h-6.22c-.14,0-.18-.02-.18-.16v-.34c0-.14.05-.18.18-.18l1.19-.02c.55-.02.57-.16.57-1.91v-10.26c0-1.74-.02-1.88-.57-1.91l-1.19-.02c-.14,0-.18-.05-.18-.18v-.34c0-.14.05-.16.18-.16h5.81c5.07,0,8.77,2.48,8.77,7.58s-3.9,7.92-8.35,7.92ZM609.43,408.85h-1.61v13.79h1.91c4.11,0,5.6-2.09,5.6-6.91,0-5.12-1.97-6.89-5.9-6.89Z"/>
  <path class="cls-13" d="M629.79,423.49c-.14,0-.18-.02-.18-.16v-.34c0-.14.05-.18.18-.18l1.19-.02c.55-.02.57-.16.57-1.91v-10.26c0-1.74-.05-1.88-.57-1.91l-1.19-.02c-.14,0-.18-.05-.18-.18v-.34c0-.14.05-.16.18-.16h10.4c.18,0,.21.05.21.18v3.99c0,.16-.02.21-.18.21h-.34c-.16,0-.18-.05-.18-.21l-.02-.25c-.05-2.04-.78-3.12-2.62-3.12h-3.03v6.2h1.77c1.24,0,1.65-.67,1.68-1.65l.02-.23c0-.14.02-.18.18-.18h.3c.16,0,.18.05.18.18v4.64c0,.16-.02.21-.18.21h-.3c-.16,0-.18-.05-.18-.21l-.02-.32c-.02-.94-.44-1.68-1.68-1.68h-1.77v6.93h3.97c2,0,2.57-1.47,2.73-3.03l.05-.34c0-.16.05-.21.16-.21h.37c.16,0,.18.05.18.21l-.23,3.99c0,.14-.02.18-.21.18h-11.25Z"/>
  <path class="cls-13" d="M655.37,423.49c-.14,0-.18-.02-.18-.16v-.34c0-.14.05-.18.18-.18l1.22-.02c.55-.02.57-.16.57-1.91v-12.07h-2.02c-1.84,0-2.62,1.12-2.64,3.17v.69c0,.14-.05.18-.18.18h-.34c-.16,0-.18-.05-.18-.18v-4.48c0-.14.02-.18.21-.18h12.74c.18,0,.21.05.21.18v4.48c0,.14-.02.18-.18.18h-.34c-.14,0-.18-.05-.18-.18v-.69c-.02-2.04-.8-3.17-2.64-3.17h-2v12.07c0,1.74.02,1.88.57,1.91l1.19.02c.14,0,.21.05.21.18v.34c0,.14-.07.16-.21.16h-5.99Z"/>
  <path class="cls-13" d="M683.4,423.64c-.14,0-.18-.02-.18-.16v-.34c0-.14.05-.16.18-.18l.78-.02c.5-.02.78-.09.78-.53,0-.39-.21-1.08-.64-2.25l-.78-2.16h-5.28l-.14.37c-.37,1.03-.76,2.27-.76,3.21,0,.87.39,1.31,1.19,1.35l.64.02c.14.02.18.05.18.18v.34c0,.14-.05.16-.18.16h-4.98c-.14,0-.18-.02-.18-.16v-.37c0-.14.07-.16.18-.16l.27-.05c.64-.07.83-.23,1.4-1.45.3-.64.8-1.95,1.17-2.92l4.02-10.51c.05-.11.07-.18.25-.18h.62c.16,0,.21.02.25.18l4.82,12.12c.99,2.52,1.17,2.73,1.88,2.78l.32.02c.14.02.18.05.18.18v.34c0,.14-.05.16-.18.16h-5.83ZM680.95,410.81h-.02l-2.36,6.4h4.71l-2.32-6.4Z"/>
  <path class="cls-13" d="M698.55,423.49c-.14,0-.18-.02-.18-.16v-.34c0-.14.05-.18.18-.18l1.19-.02c.55-.02.57-.16.57-1.91v-10.26c0-1.74-.02-1.88-.57-1.91l-1.19-.02c-.14,0-.18-.05-.18-.18v-.34c0-.14.05-.16.18-.16h5.99c.14,0,.18.02.18.16v.34c0,.14-.05.18-.18.18l-1.19.02c-.55.02-.57.16-.57,1.91v10.26c0,1.74.02,1.88.57,1.91l1.19.02c.14,0,.18.05.18.18v.34c0,.14-.05.16-.18.16h-5.99Z"/>
  <path class="cls-13" d="M715.85,423.49c-.14,0-.18-.02-.18-.16v-.34c0-.14.05-.18.18-.18l1.19-.02c.55-.02.57-.16.57-1.91v-10.26c0-1.74-.02-1.88-.57-1.91l-1.19-.02c-.14,0-.18-.05-.18-.18v-.34c0-.14.05-.16.18-.16h6.31c.14,0,.18.02.18.16v.34c0,.14-.05.18-.18.18l-1.51.02c-.55.02-.57.16-.57,1.91v12.07h3.72c1.91,0,2.69-1.45,2.8-4.13,0-.16.02-.21.16-.21h.37c.16,0,.18.05.18.21l-.23,4.75c0,.14-.02.18-.21.18h-11.02Z"/>
  <path class="cls-13" d="M283.97,87.35c-.21,0-.29-.07-.43-.25l-14.07-19.77h-.07v11.47c0,6.09.89,6.87,2.99,6.98l1.14.04c.21.04.28.07.28.28v.53c0,.21-.07.25-.28.25h-8.44c-.21,0-.29-.04-.29-.25v-.53c0-.21.07-.25.29-.28l.61-.04c1.46-.11,2.28-.93,2.28-6.98v-11.61c0-2.85-.14-3.17-1.07-3.21l-1.64-.04c-.21,0-.29-.07-.29-.28v-.57c0-.21.07-.25.29-.25h5.41c.21,0,.32.07.46.29l12.71,18.27h.07v-10.47c0-6.09-.93-6.87-3.03-6.98l-1.14-.04c-.21-.04-.29-.07-.29-.28v-.53c0-.21.07-.25.29-.25h8.48c.21,0,.29.04.29.25v.53c0,.21-.07.25-.29.28l-.64.04c-1.46.11-2.28.93-2.28,6.98v16.17c0,.18-.11.25-.36.25h-1Z"/>
  <path class="cls-13" d="M324.25,87.35c-.21,0-.29-.04-.29-.25v-.53c0-.21.07-.25.29-.28l1.21-.04c.78-.04,1.21-.14,1.21-.82,0-.61-.32-1.67-1-3.49l-1.21-3.35h-8.19l-.21.57c-.57,1.6-1.18,3.53-1.18,4.99,0,1.35.61,2.03,1.85,2.1l1,.04c.21.04.29.07.29.28v.53c0,.21-.07.25-.29.25h-7.73c-.21,0-.29-.04-.29-.25v-.57c0-.21.11-.25.29-.25l.43-.07c1-.11,1.28-.36,2.17-2.24.46-1,1.25-3.03,1.82-4.52l6.23-16.31c.07-.18.11-.28.39-.28h.96c.25,0,.32.04.39.28l7.48,18.8c1.53,3.92,1.82,4.24,2.92,4.31l.5.04c.21.04.28.07.28.28v.53c0,.21-.07.25-.28.25h-9.05ZM320.44,67.44h-.04l-3.67,9.94h7.3l-3.6-9.94Z"/>
  <path class="cls-13" d="M355.06,87.12c-.21,0-.29-.04-.29-.25v-.53c0-.21.07-.28.29-.28l1.85-.04c.85-.04.89-.25.89-2.96v-15.92c0-2.71-.04-2.92-.89-2.96l-1.85-.04c-.21,0-.29-.07-.29-.28v-.53c0-.21.07-.25.29-.25h9.29c.21,0,.29.04.29.25v.53c0,.21-.07.28-.29.28l-1.85.04c-.86.04-.89.25-.89,2.96v15.92c0,2.71.04,2.92.89,2.96l1.85.04c.21,0,.29.07.29.28v.53c0,.21-.07.25-.29.25h-9.29Z"/>
  <path class="cls-13" d="M388.4,87.12c-.21,0-.29-.04-.29-.25v-.53c0-.21.07-.28.29-.28l1.85-.04c.85-.04.89-.25.89-2.96v-15.92c0-2.71-.04-2.92-.89-2.96l-1.85-.04c-.21,0-.29-.07-.29-.28v-.53c0-.21.07-.25.29-.25h9.79c.21,0,.29.04.29.25v.53c0,.21-.07.28-.29.28l-2.35.04c-.85.04-.89.25-.89,2.96v18.73h5.77c2.96,0,4.17-2.24,4.34-6.41,0-.25.04-.32.25-.32h.57c.25,0,.28.07.28.32l-.36,7.37c0,.21-.04.29-.32.29h-17.09Z"/>
  <path class="cls-13" d="M464.4,87.58c-2.17,0-4.1-.5-5.48-1.32l-.11.71c0,.21-.04.32-.28.32h-.39c-.25,0-.28-.11-.28-.32l-.32-7.41c0-.25.04-.32.29-.32h.53c.21,0,.25.07.29.32l.07.82c.21,2.99,2.17,6.02,5.77,6.02,3.21,0,4.74-1.57,4.74-3.95,0-3.31-2.35-4.56-5.45-6.23-2.92-1.6-5.7-3.17-5.7-7.23s2.81-6.38,6.7-6.38c1.78,0,3.53.57,4.7,1.32l.11-.71c.04-.25.07-.32.32-.32h.39c.25,0,.29.11.29.32v6.38c0,.21-.04.28-.32.28h-.53c-.21,0-.25-.07-.29-.28v-.21c-.14-3.13-2.1-5.63-4.99-5.63-2.53,0-3.7,1.46-3.7,3.49,0,2.71,2.24,3.99,4.88,5.38,3.38,1.85,6.48,3.45,6.48,7.98s-3.21,6.98-7.69,6.98Z"/>
  <path class="cls-13" d="M496.72,87.12c-.21,0-.29-.04-.29-.25v-.53c0-.21.07-.28.29-.28l1.85-.04c.85-.04.89-.25.89-2.96v-15.92c0-2.71-.07-2.92-.89-2.96l-1.85-.04c-.21,0-.29-.07-.29-.28v-.53c0-.21.07-.25.29-.25h16.13c.29,0,.32.07.32.29v6.2c0,.25-.04.32-.29.32h-.53c-.25,0-.28-.07-.28-.32l-.04-.39c-.07-3.17-1.21-4.84-4.06-4.84h-4.7v9.62h2.74c1.92,0,2.56-1.03,2.6-2.56l.04-.36c0-.21.04-.28.28-.28h.46c.25,0,.29.07.29.28v7.19c0,.25-.04.32-.29.32h-.46c-.25,0-.28-.07-.28-.32l-.04-.5c-.04-1.46-.68-2.6-2.6-2.6h-2.74v10.76h6.16c3.1,0,3.99-2.28,4.24-4.7l.07-.53c0-.25.07-.32.25-.32h.57c.25,0,.29.07.29.32l-.36,6.2c0,.21-.04.29-.32.29h-17.45Z"/>
  <path class="cls-13" d="M548.35,74.28v.04c2.85.82,4.91,2.42,5.09,6.8.21,3.67.57,4.92,1.75,4.92.61,0,1.03-.46,1.32-1.03.07-.18.14-.25.32-.18l.32.14c.14.07.18.18.07.39-.43,1.14-1.28,1.99-3.03,1.99-3.63,0-4.24-2.85-4.49-6.16-.25-4.38-1-6.23-4.27-6.23h-2.31v7.87c0,2.71.04,2.92.89,2.96l1.85.04c.21,0,.29.07.29.28v.53c0,.21-.07.25-.29.25h-9.29c-.21,0-.29-.04-.29-.25v-.53c0-.21.07-.28.29-.28l1.85-.04c.85-.04.89-.25.89-2.96v-15.92c0-2.71-.04-2.92-.89-2.96l-1.85-.04c-.21,0-.29-.07-.29-.28v-.53c0-.21.07-.25.29-.25h8.87c4.84,0,9.12,1.32,9.12,5.77,0,3.21-2.53,4.99-6.2,5.66ZM545.71,64.09h-2.6v9.65h2.28c3.49,0,5.06-1.46,5.06-4.95,0-3.81-1.75-4.7-4.74-4.7Z"/>
  <path class="cls-13" d="M623.14,87.12c-.21,0-.29-.04-.29-.25v-.53c0-.21.07-.28.29-.28l1.85-.04c.85-.04.89-.25.89-2.96v-15.92c0-2.71-.04-2.92-.89-2.96l-1.85-.04c-.21,0-.29-.07-.29-.28v-.53c0-.21.07-.25.29-.25h9.29c.21,0,.29.04.29.25v.53c0,.21-.07.28-.29.28l-1.85.04c-.85.04-.89.25-.89,2.96v15.92c0,2.71.04,2.92.89,2.96l1.85.04c.21,0,.29.07.29.28v.53c0,.21-.07.25-.29.25h-9.29Z"/>
  <path class="cls-13" d="M601.17,63.95c-.93.07-1.32.57-2.07,2.28-.36.75-1.28,3.17-1.78,4.56l-5.95,16.28c-.07.18-.14.28-.43.28h-.96c-.25,0-.32-.04-.39-.28l-7.27-18.8c-1.6-4.13-1.71-4.27-2.92-4.31l-.43-.04c-.21-.04-.29-.07-.29-.28v-.53c0-.21.07-.25.29-.25h9.08c.21,0,.28.04.28.25v.53c0,.21-.07.28-.28.28l-1.21.04c-.82,0-1.21.14-1.21.85,0,.64.29,1.67.89,3.45l5.02,14.49h.04l4.13-11.79c.53-1.57,1.14-3.45,1.14-4.91,0-1.35-.64-2.07-1.89-2.1l-1-.04c-.21,0-.28-.07-.28-.28v-.53c0-.21.07-.25.28-.25h7.73c.21,0,.29.04.29.25v.53c0,.21-.07.25-.29.28l-.53.04Z"/>
  <path class="cls-13" d="M675.31,87.3c-.21,0-.28-.11-.28-.32l-.11-.71c-1.64.75-4.1,1.32-6.59,1.32-7.02,0-11.29-5.13-11.29-12.14s3.85-12.82,11.25-12.82c2.03,0,4.1.43,5.66,1.32l.14-.71c.04-.25.07-.32.29-.32h.43c.21,0,.25.04.25.32v7.05c0,.21-.04.28-.29.28h-.53c-.21,0-.28-.07-.28-.28v-.64c-.04-3.28-2.46-5.88-5.77-5.88-5.63,0-6.77,4.81-6.77,11.72,0,5.24,1.32,10.93,7.02,10.93,4.13,0,6.34-2.31,6.66-6.16l.11-.89c0-.21.04-.29.25-.29h.57c.25,0,.28.07.28.29l-.32,7.62c0,.21-.04.32-.25.32h-.43Z"/>
  <path class="cls-13" d="M698.92,87.12c-.21,0-.29-.04-.29-.25v-.53c0-.21.07-.28.29-.28l1.85-.04c.85-.04.89-.25.89-2.96v-15.92c0-2.71-.07-2.92-.89-2.96l-1.85-.04c-.21,0-.29-.07-.29-.28v-.53c0-.21.07-.25.29-.25h16.13c.29,0,.32.07.32.29v6.2c0,.25-.04.32-.29.32h-.53c-.25,0-.28-.07-.28-.32l-.04-.39c-.07-3.17-1.21-4.84-4.06-4.84h-4.7v9.62h2.74c1.92,0,2.56-1.03,2.6-2.56l.04-.36c0-.21.04-.28.28-.28h.46c.25,0,.29.07.29.28v7.19c0,.25-.04.32-.29.32h-.46c-.25,0-.28-.07-.28-.32l-.04-.5c-.04-1.46-.68-2.6-2.6-2.6h-2.74v10.76h6.16c3.1,0,3.99-2.28,4.24-4.7l.07-.53c0-.25.07-.32.25-.32h.57c.25,0,.29.07.29.32l-.36,6.2c0,.21-.04.29-.32.29h-17.45Z"/>
  <line class="cls-11" x1="464.81" y1="33.04" x2="218.56" y2="33.04"/>
  <line class="cls-9" x1="764.59" y1="33.04" x2="518.35" y2="33.04"/>
  <path class="cls-15" d="M209.49,348.88l2.16-3.18c5.77-8.55,12.05-16.55,18.83-24.01,6.78-7.45,14.17-14.34,22.19-20.65,3.58-2.85,7.19-5.5,10.84-7.96,3.65-2.46,7.45-4.74,11.41-6.85,1.8-.97,3.64-1.85,5.52-2.64,1.88-.79,3.79-1.49,5.75-2.1,1.19-.38,2.36-.66,3.51-.84,1.15-.18,2.3-.22,3.46-.12,2.26.12,3.89,1.07,4.9,2.85.34.57.55,1.19.63,1.86.08.67.12,1.34.13,1.99-.07.97-.24,1.89-.52,2.76-.28.88-.61,1.76-.97,2.66-.86,2.01-1.83,3.95-2.89,5.83-1.07,1.88-2.17,3.75-3.31,5.6-1.86,2.92-3.71,5.8-5.56,8.64-1.84,2.84-3.66,5.73-5.44,8.66-2.27,3.64-4.45,7.26-6.55,10.86-2.1,3.6-4.14,7.29-6.12,11.08-1.34,2.71-2.62,5.42-3.84,8.12-1.22,2.7-2.43,5.46-3.64,8.29-.71,1.71-1.39,3.46-2.04,5.23-.65,1.77-1.29,3.52-1.93,5.25-.59,1.5-1.08,3.04-1.49,4.62-.41,1.58-.69,3.21-.84,4.89l-.19.81c-.21,1.26-.91,1.87-2.08,1.84-.41.07-.8-.06-1.15-.39-.36-.33-.57-.7-.63-1.13-.16-1.02-.17-2.17-.03-3.44.1-1.12.3-2.24.6-3.35.3-1.12.65-2.2,1.05-3.25,2.17-6.28,4.56-12.43,7.18-18.44,2.62-6.01,5.55-11.91,8.79-17.7,2.72-4.92,5.56-9.74,8.5-14.45,2.95-4.71,5.91-9.41,8.9-14.11,1.22-1.84,2.4-3.73,3.56-5.67,1.16-1.94,2.27-3.84,3.34-5.72.53-.94.99-1.87,1.36-2.81.37-.93.75-1.89,1.14-2.86.31-.66.49-1.44.54-2.33,0-.98-.47-1.54-1.39-1.67-1.01-.07-2-.05-2.97.05-1.14.14-2.25.42-3.33.82-1.08.4-2.18.8-3.29,1.2-2.68,1.01-5.26,2.21-7.75,3.59-2.49,1.38-4.94,2.86-7.35,4.42-6.3,4.01-12.27,8.43-17.92,13.24-5.66,4.82-11.02,10.02-16.11,15.62-4.22,4.58-8.21,9.27-11.97,14.08-3.76,4.81-7.29,9.89-10.58,15.25-2.89,4.64-5.58,9.57-8.05,14.8-.17.37-.31.74-.44,1.12-.13.38-.12.79,0,1.23.13.44.09.8-.13,1.07-.22.27-.52.53-.89.77-.5.46-1.06.49-1.68.1-.13-.11-.28-.23-.45-.35-.17-.12-.32-.24-.45-.35l-.59-.5c-.77-.42-1.17-1.09-1.19-1.99.01-.41.03-.81.05-1.22.02-.41.07-.8.16-1.19.18-1.1.44-2.23.78-3.37.34-1.15.73-2.28,1.15-3.41,2.79-7.61,5.88-15.04,9.27-22.31,3.38-7.26,7.04-14.44,10.98-21.54,1.99-3.46,4.02-6.85,6.09-10.17,2.07-3.32,4.13-6.66,6.18-10.03,1.42-2.37,2.81-4.72,4.18-7.06,1.37-2.34,2.65-4.72,3.85-7.14.48-1.03.92-2.03,1.35-3,.42-.96.83-1.97,1.23-3.02.53-1.27.85-2.62.95-4.07-.04-.17-.05-.3-.03-.38.02-.08,0-.2-.03-.37-.05-1.81-.94-2.92-2.66-3.32-.67-.16-1.37-.23-2.07-.24-.71,0-1.43.04-2.15.11-1.36.09-2.7.31-4,.66-1.31.35-2.6.74-3.88,1.18-2.74.92-5.38,2.02-7.92,3.31-2.55,1.29-5.06,2.67-7.53,4.14-4.77,2.9-9.32,6.07-13.63,9.52-4.31,3.45-8.37,7.27-12.18,11.45-2.09,2.21-4.01,4.52-5.75,6.94-1.74,2.41-3.33,5.01-4.77,7.78-.74,1.46-1.39,2.91-1.95,4.33-.57,1.42-.99,2.92-1.28,4.48-.14.95-.24,1.89-.3,2.81-.06.93,0,1.86.18,2.8.2,1.19.77,1.94,1.73,2.24.3.07.71.33,1.24.78.54.37.81.74.81,1.11,0,.37-.11.81-.31,1.34-.18.45-.49.76-.93.95-.44.19-.88.22-1.33.12-.36-.16-.7-.29-1.04-.36-.34-.08-.68-.24-1.01-.48-1.29-.55-2.28-1.55-2.96-3.02-.4-.99-.67-1.97-.79-2.94-.13-.97-.15-1.98-.07-3.02.08-2.02.41-3.95.99-5.78.58-1.83,1.28-3.63,2.08-5.4,1.28-2.81,2.76-5.45,4.44-7.92,1.68-2.47,3.5-4.87,5.46-7.19,4.01-4.71,8.27-8.97,12.79-12.78,4.51-3.81,9.35-7.33,14.51-10.54,5.27-3.35,10.65-6.11,16.12-8.27,1.82-.72,3.68-1.33,5.57-1.83,1.89-.5,3.81-.85,5.75-1.06.88-.04,1.74-.04,2.6,0,.86.04,1.7.15,2.52.34,2.04.39,3.6,1.31,4.68,2.74,1.08,1.44,1.62,3.22,1.6,5.34.03,1.23-.11,2.43-.42,3.58-.31,1.15-.67,2.3-1.09,3.42-.97,2.47-2.06,4.87-3.27,7.21-1.21,2.33-2.52,4.65-3.92,6.94l-12.1,19.99c-2.91,4.72-5.62,9.48-8.11,14.3-2.5,4.81-4.88,9.7-7.13,14.65-.51,1.19-1.02,2.36-1.52,3.51-.5,1.15-1,2.28-1.5,3.39-.04.15-.08.25-.12.28-.05.03-.09.12-.12.28l.11.03Z"/>
  <path class="cls-15" d="M350.9,318.5c-.14.21-.22.43-.25.64-.04.21-.12.39-.26.54-.2.5-.39.98-.56,1.44-.17.47-.39.91-.66,1.34-.14.29-.29.57-.46.86-.17.29-.32.53-.46.75-.27.36-.66.53-1.17.53s-.93-.17-1.27-.53c-.48-.5-.61-1.18-.41-2.04.07-.21.24-.6.51-1.18.41-.99.88-1.99,1.43-3,.4-.71.95-1.1,1.63-1.17.54-.07,1,.07,1.37.42.37.36.56.83.56,1.4Z"/>
  <path class="cls-15" d="M418.6,278.96c-.27-1.07-.79-1.88-1.57-2.41-.79-.54-1.72-.7-2.8-.48-.34.14-.68.26-1.02.37-.34.11-.68.27-1.02.48-.54.36-1.09.74-1.63,1.13s-1.09.77-1.63,1.12c-.13.08-.27.15-.4.22-.14.07-.28.14-.41.21-.14.15-.33.29-.56.43-.24.14-.43.29-.56.43-.88.93-1.75,1.82-2.6,2.68-.85.85-1.71,1.75-2.59,2.68-2.79,3.14-5.5,6.28-8.15,9.43-2.65,3.14-5.19,6.42-7.64,9.85-3.05,4.29-5.95,8.68-8.7,13.18s-5.28,9.15-7.59,13.93c-1.15,2.29-2.2,4.63-3.15,7.02-.06.16-.13.33-.18.49l-4.1,3.85c-3.26,3-6.55,5.68-9.87,8.04-1.16.78-2.33,1.53-3.52,2.25-1.18.71-2.46,1.35-3.81,1.93-.55.14-1.07.28-1.58.42-.51.15-1.04.22-1.58.22-1.29.07-2.14-.54-2.55-1.82-.27-1.08-.37-2.15-.3-3.22.07-1.21.24-2.36.51-3.43.27-1.07.57-2.17.91-3.32.55-1.71,1.18-3.37,1.89-4.98.05-.12.11-.24.16-.36,1.09-1.16,2.2-2.31,3.33-3.46.52-.49,1.11-1.29,1.77-2.42.44-.65.56-1.33.33-2.06-.22-.72-.77-1.16-1.66-1.33-.51-.16-.95-.03-1.32.37-.03.02-.06.05-.1.08-.37-.23-.81-.25-1.34-.09-.61.14-1.09.54-1.43,1.18-.13.36-.29.68-.45.96-.17.29-.36.58-.56.86-.49.8-.94,1.61-1.36,2.43-1.29,1.3-2.6,2.57-3.94,3.82-2.81,2.62-5.68,5.14-8.63,7.55-1.4,1.13-2.82,2.2-4.26,3.21s-2.93,1.95-4.48,2.84c-.81.4-1.6.74-2.38,1.02-.77.29-1.56.51-2.37.67-2.14.32-3.43-.65-3.87-2.9v-.24c-.15-.97-.19-1.92-.12-2.84.08-.93.19-1.83.34-2.72.36-1.94.86-3.81,1.49-5.62.62-1.81,1.34-3.65,2.16-5.5.88-2.01,1.8-4.03,2.76-6.04.15-.24.28-.49.39-.73.11-.24.16-.52.16-.84,0-1.05-.44-1.69-1.32-1.94-.3-.08-.57-.08-.83,0-.26.08-.54.12-.83.12-.89.25-1.62.81-2.21,1.7-.15.16-.28.34-.39.54s-.24.42-.39.66c-.59-1.12-1.34-1.97-2.27-2.53-.92-.57-1.9-.97-2.93-1.21-.74-.16-1.45-.24-2.15-.24s-1.39.08-2.05.24c-1.55.32-3.02.84-4.42,1.57-1.41.72-2.73,1.57-3.99,2.54-1.99,1.61-3.74,3.44-5.25,5.5-1.51,2.05-2.86,4.25-4.04,6.58-.81,1.53-1.47,3.1-1.99,4.71-.51,1.62-.85,3.27-.99,4.96-.15,1.13-.19,2.23-.11,3.32.07,1.09.36,2.16.88,3.2,1.4,2.66,3.5,3.75,6.31,3.27,1.69-.41,3.16-1.05,4.42-1.94.74-.56,1.45-1.08,2.16-1.57.7-.48,1.38-1.04,2.04-1.69,1.7-1.61,3.27-3.28,4.7-5.01,1.44-1.74,2.82-3.53,4.15-5.38.07-.16.15-.3.22-.43.08-.12.19-.26.33-.42-.07.57-.14,1.09-.22,1.57-.07.49-.15.93-.22,1.33-.15,1.29-.2,2.56-.16,3.81.03,1.25.23,2.48.6,3.69.59,1.85,1.55,3.22,2.88,4.1,1.33.89,2.88,1.25,4.65,1.09,1.99-.24,3.87-.84,5.64-1.81,1.47-.65,2.89-1.41,4.25-2.3,1.37-.88,2.68-1.81,3.93-2.78,1.99-1.45,3.93-3,5.81-4.65.97-.85,1.94-1.73,2.91-2.61-.27.89-.49,1.77-.67,2.63-.23,1.18-.35,2.41-.35,3.7v.97c0,.28.03.6.1.96.07.36.12.68.15.96.04.29.12.61.26.97.54,1.71,1.42,3,2.65,3.86,1.22.85,2.68,1.17,4.37.96,2.04-.21,4.01-.82,5.91-1.82,1.42-.72,2.78-1.48,4.07-2.31,1.29-.82,2.58-1.73,3.87-2.73,2.68-2.05,5.25-4.18,7.7-6.4-.15.7-.29,1.39-.42,2.06-.17.9-.26,1.84-.26,2.84,0,1.29.21,2.65.62,4.07.54,1.65,1.42,2.86,2.64,3.65,1.22.78,2.65,1.1,4.28.96.74-.14,1.46-.28,2.14-.43.67-.14,1.35-.35,2.03-.64,2.92-1.21,5.77-2.89,8.56-5.04,3.05-2.21,5.95-4.57,8.7-7.07s5.48-5.07,8.2-7.71c.2-.29.42-.54.66-.75.23-.22.42-.47.56-.75.34-.43.57-.82.71-1.18.47-1,.34-1.75-.41-2.25-.34-.29-.73-.47-1.17-.54s-.83.07-1.17.43l-.92.97c-2.37,2.5-4.85,4.91-7.43,7.23-2.58,2.32-5.23,4.55-7.94,6.7-1.29,1-2.6,1.94-3.92,2.83-1.32.9-2.7,1.74-4.12,2.52-.75.36-1.48.66-2.19.91-.71.25-1.44.45-2.19.59-1.9.29-3.05-.53-3.46-2.46-.07-.07-.1-.18-.1-.32-.14-.79-.17-1.61-.11-2.47.07-.86.17-1.68.31-2.46.34-1.5.76-2.97,1.27-4.4.33-.91.66-1.83,1.01-2.75.53-.51,1.06-1.02,1.59-1.53.34-.29.63-.57.86-.86.24-.28.5-.61.77-.96.36-.38.64-.82.83-1.31.43-.34.87-.67,1.31-1,.81-.6,1.59-1.23,2.34-1.87,2.3-1.93,4.53-3.91,6.67-5.95,2.13-2.03,4.29-4.09,6.46-6.16,3.06-3,6.01-6.04,8.86-9.11,2.85-3.07,5.56-6.32,8.14-9.75,1.63-2.14,3.16-4.32,4.59-6.53,1.42-2.22,2.71-4.57,3.86-7.08.48-1,.9-2.03,1.28-3.1.37-1.07.66-2.15.86-3.22.14-.78.24-1.53.31-2.25.06-.71,0-1.43-.21-2.14ZM306.52,335.71c-1.11,1.62-2.2,3.21-3.27,4.78s-2.19,3.12-3.37,4.65c-1.18,1.61-2.43,3.12-3.76,4.53s-2.77,2.72-4.31,3.93c-.6.4-1.15.78-1.66,1.15-.52.36-1.07.66-1.66.9-.15,0-.44.08-.89.25-1.25.24-2.06-.29-2.43-1.58-.07-.24-.11-.5-.11-.78s-.04-.58-.11-.91c.07-.88.18-1.71.33-2.48.15-.76.33-1.55.55-2.35.89-2.9,2.09-5.54,3.6-7.92,1.51-2.37,3.33-4.53,5.47-6.46,2.07-1.85,4.32-3.14,6.75-3.87,1.47-.4,2.77-.44,3.87-.12,1.25.4,1.92,1.29,1.99,2.66,0,1.45-.33,2.66-.99,3.62ZM415.19,281.69c-.03.39-.08.77-.15,1.13-.47,1.92-1.19,3.82-2.14,5.68-1.02,2.28-2.19,4.44-3.51,6.48-1.32,2.03-2.73,4.02-4.22,5.94-1.97,2.72-4.06,5.31-6.27,7.77-2.2,2.47-4.49,4.88-6.87,7.24-2.71,2.71-5.45,5.37-8.19,7.98-2.75,2.61-5.59,5.16-8.51,7.66-.13.14-.3.27-.5.37-.21.11-.38.24-.51.38l-.11-.11c1.84-3.71,3.82-7.34,5.96-10.87,2.14-3.54,4.39-7.02,6.77-10.45.14.14.34.29.61.43.48.28.92.3,1.33.05.4-.25.64-.55.71-.91.13-.86.41-1.61.81-2.25.41-.64.82-1.32,1.22-2.03,1.23-2,2.5-3.97,3.82-5.9,1.33-1.93,2.73-3.82,4.23-5.68,1.15-1.35,2.29-2.68,3.41-3.96,1.12-1.29,2.22-2.57,3.31-3.86.74-.86,1.47-1.68,2.19-2.46.71-.79,1.51-1.5,2.39-2.15.47-.35.95-.69,1.42-1.01.48-.33.95-.66,1.43-1.02.34-.14.78-.29,1.32-.43,0,.14.02.27.05.37.04.11.05.24.05.38,0,.43-.01.84-.05,1.23Z"/>
  <path class="cls-15" d="M669.67,307.34c-.37-.32-.82-.45-1.36-.39-.67.07-1.21.43-1.61,1.08-.54.91-1,1.82-1.41,2.73-.27.52-.43.87-.5,1.07-.2.78-.07,1.4.4,1.85.34.33.76.49,1.26.49s.89-.16,1.16-.49c.13-.2.28-.42.45-.68s.32-.52.45-.78c.27-.39.49-.8.66-1.22.17-.42.35-.86.55-1.32.14-.13.22-.29.25-.48.04-.2.12-.39.26-.59,0-.52-.19-.94-.56-1.27Z"/>
  <path class="cls-15" d="M731.22,322.52c-.03-.29-.18-.53-.45-.73-.54-.45-1.17-.52-1.91-.19l-.2.09c-.07,0-.17.04-.3.1-.34.2-.66.33-.96.39-.3.07-.62.13-.96.2-3.15.19-6.14-.13-8.96-.98-.8-.26-1.61-.53-2.41-.83-.81-.29-1.58-.63-2.32-1.02-.94-.45-1.81-.32-2.62.39-.4.39-.7.72-.9.97-.14.26-.27.49-.41.69-.13-.26-.2-.36-.2-.3-.6-1.03-1.57-1.81-2.92-2.33-.8-.33-1.62-.52-2.46-.59-.84-.06-1.66-.03-2.47.1-2.62.39-5.1,1.4-7.45,3.02-.66.46-1.3.94-1.91,1.44h-.04c-.27,0-.61.16-1.01.49-.13.13-.29.29-.45.48-.17.2-.32.36-.46.49-.4.33-.79.67-1.15,1.03-.37.35-.72.69-1.06,1.02l-5.74,4.97c-3.22,2.73-6.48,5.17-9.76,7.31-1.15.72-2.3,1.4-3.48,2.05-1.17.65-2.43,1.23-3.77,1.75-.54.13-1.06.26-1.56.39-.51.13-1.03.2-1.56.2-1.28.06-2.12-.49-2.52-1.66-.27-.97-.37-1.95-.3-2.92.06-1.11.23-2.15.5-3.12.27-.98.57-1.98.91-3.02.2-.59.41-1.17.64-1.75.37-.95.78-1.88,1.22-2.79.11-.23.22-.46.33-.69.6-1.23,1.21-2.48,1.83-3.74.14-.33.31-.62.51-.88s.37-.55.5-.88c.13-.32.18-.66.15-1.02-.03-.36-.22-.67-.55-.93-.4-.39-.94-.48-1.61-.29-.61.13-1.08.49-1.41,1.07-.14.33-.29.62-.46.88-.16.26-.35.52-.55.78-1.07,1.63-1.98,3.28-2.72,4.97-.19.44-.38.89-.55,1.33h0c-.07.08-.13.13-.2.2-.3.3-.62.6-.96.93l-5.74,4.97c-1.54,1.3-3.14,2.58-4.78,3.85-1.64,1.27-3.34,2.45-5.08,3.56-1.15.71-2.3,1.4-3.48,2.05-1.17.65-2.43,1.2-3.77,1.65-1.14.46-2.22.69-3.22.69-1.08,0-1.82-.49-2.22-1.47-.07-.13-.12-.26-.15-.39-.03-.13-.08-.26-.15-.39-.14-.78-.19-1.54-.15-2.29.03-.74.11-1.47.25-2.19.27-1.3.62-2.55,1.06-3.75.43-1.2.92-2.42,1.46-3.66.2-.52.35-.89.45-1.12.1-.23.2-.4.3-.54.1-.13.27-.27.51-.43.23-.17.58-.41,1.05-.74,2.35-1.75,4.7-3.5,7.05-5.26,2.35-1.75,4.66-3.54,6.95-5.36,4.22-3.51,8.25-7.16,12.08-10.97,3.82-3.8,7.55-7.78,11.17-11.94,1.34-1.56,2.65-3.15,3.93-4.77,1.27-1.63,2.42-3.35,3.42-5.17.47-.78.89-1.56,1.26-2.34.37-.78.72-1.59,1.06-2.43.4-1.24.57-2.47.5-3.71-.2-2.21-1.44-3.41-3.72-3.61-.81,0-1.61.1-2.42.3-.74.19-1.46.45-2.16.78-.71.32-1.4.65-2.07.97-.27.2-.6.29-1.01.29-.67-.13-1.27.07-1.81.59-.33.32-.69.63-1.05.92-.37.3-.73.61-1.06.93-1.88,1.76-3.68,3.58-5.39,5.46s-3.44,3.77-5.18,5.65c-4.63,5.07-8.95,10.35-12.94,15.84s-7.64,11.26-10.92,17.3c-.2.33-.44.67-.71,1.03-.27.36-.57.7-.9,1.02l-.2-.19c-.34-.65-.78-1.16-1.31-1.51-.54-.36-1.15-.67-1.82-.93-.87-.33-1.72-.49-2.56-.49s-1.73.07-2.67.2c-2.35.45-4.63,1.39-6.85,2.82-1.94,1.3-3.62,2.77-5.03,4.39-1.37,1.57-2.62,3.28-3.73,5.1-.57.49-1.14.96-1.71,1.43-1.64,1.37-3.3,2.73-4.98,4.09-1.14.92-2.28,1.78-3.42,2.59s-2.32,1.57-3.53,2.29c-1,.58-2.01,1.15-3.02,1.7-1,.56-2.08,1-3.22,1.32-1,.33-1.98.52-2.92.58-1.14.07-1.91-.42-2.31-1.46-.07-.13-.12-.24-.15-.34-.04-.1-.09-.21-.16-.34-.13-.65-.2-1.28-.2-1.9s.07-1.22.2-1.8c.14-1.11.37-2.18.71-3.22.33-1.04.7-2.08,1.11-3.12.53-1.3,1.1-2.58,1.71-3.85.6-1.27,1.24-2.52,1.91-3.75.14-.26.25-.51.35-.73.1-.23.22-.47.36-.73.26-.33.38-.72.35-1.17-.04-.46-.25-.82-.66-1.08-.2-.19-.33-.35-.4-.48-.2-.52-.64-.85-1.31-.98-.67-.13-1.27.07-1.81.59-.34.39-.69.76-1.06,1.12s-.72.7-1.05,1.02c-4.57,4.48-9.27,8.84-14.1,13.06-.67.59-1.36,1.16-2.06,1.71-.71.55-1.43,1.09-2.17,1.61-.6.45-1.2.86-1.81,1.21-.6.36-1.24.7-1.91,1.03-.67.26-1.38.45-2.12.58s-1.25.09-1.56-.14c-.3-.23-.52-.7-.65-1.42-.14-.45-.19-.89-.15-1.31.03-.42.08-.86.15-1.32.33-1.82.82-3.57,1.46-5.26s1.42-3.35,2.36-4.97c.41-.65.83-1.3,1.26-1.95.44-.65.86-1.3,1.26-1.95.14-.2.3-.36.51-.49.2,0,.36-.05.5-.15.13-.09.27-.21.4-.34.34-.32.52-.63.56-.92.03-.3-.02-.6-.16-.93-.13-.58-.6-.97-1.41-1.17-.73-.19-1.4,0-2.01.59-.34.26-.6.5-.8.73-.21.23-.44.47-.71.73-.94,1.1-1.78,2.26-2.52,3.46-.47.77-.92,1.55-1.33,2.36-.21-.11-.43-.18-.68-.22-.47-.06-.87.07-1.21.39-.13.13-.25.25-.35.34-.1.1-.22.22-.35.34-.94.85-1.88,1.7-2.82,2.54-.94.84-1.88,1.69-2.82,2.53-1.74,1.5-3.49,2.96-5.23,4.39-1.75,1.43-3.56,2.8-5.44,4.09-1.34.91-2.67,1.76-3.98,2.54-1.31.78-2.7,1.46-4.17,2.05-.61.26-1.23.47-1.87.63-.64.16-1.29.28-1.96.34-1.34.07-2.25-.52-2.72-1.75-.34-.91-.44-1.86-.3-2.83,0-.84.1-1.67.3-2.49.2-.81.44-1.61.71-2.38.67-2.08,1.47-4.11,2.41-6.1.94-1.98,1.95-3.91,3.02-5.8.07-.06.1-.19.1-.39,0-.39.17-.81.51-1.26,2.41-4.42,5.05-8.68,7.9-12.77,2.85-4.1,5.89-8.09,9.11-11.99.27-.33.6-.49,1.01-.49,1.94.07,3.84.11,5.69.15,1.84.03,3.74.11,5.68.24,1.28.07,2.54.15,3.78.24,1.24.1,2.5.22,3.77.35.81.13,1.63.22,2.47.29.84.06,1.66.13,2.47.19.33.07.6.07.8,0,.2-.06.44-.16.71-.29.53-.39.77-.91.7-1.56-.2-.84-.77-1.33-1.71-1.46-2.08-.46-4.16-.78-6.24-.98-2.08-.19-4.16-.35-6.24-.48-1.41-.07-2.84-.12-4.28-.15-1.45-.03-2.91-.08-4.38-.15-.14,0-.24-.01-.3-.04-.07-.04-.17-.05-.3-.05.26-.33.43-.52.5-.59,2.28-2.6,4.61-5.13,7-7.6,2.38-2.47,4.74-4.94,7.09-7.41.27-.39.41-.71.41-.97,0-.91-.51-1.43-1.51-1.56-.61-.13-1.21.03-1.82.48-.33.33-.67.62-1,.88-.34.26-.68.55-1.01.88-2.55,2.47-5,4.95-7.35,7.46-2.35,2.5-4.66,5.08-6.95,7.74-.4.46-.87.69-1.41.69-3.42-.07-6.86-.05-10.31.05-3.46.09-6.94.24-10.42.43-1.12.08-2.24.16-3.35.24,9.49-10.28,16.04-18.09,19.66-23.41.94-1.39,1.58-2.54,1.94-3.47.36-.93.54-1.82.54-2.68-.07-.42-.14-.75-.21-.99-.08-.24-.19-.49-.33-.76-.64-1.06-1.9-1.81-3.76-2.23-.58-.11-1.4-.16-2.48-.16s-2.05.05-2.91.16c-6.81,1.01-15.28,3.76-25.4,8.25-10.11,4.5-21.09,10.41-32.93,17.75-10.12,6.22-16.97,11.12-20.56,14.68-2.65,2.66-4.02,5.13-4.09,7.42,0,.74.06,1.38.16,1.91.11.53.31,1.04.6,1.52,1.21,1.91,3.51,3.45,6.88,4.62,3.81,1.44,10.62,2.61,20.45,3.51,4.67.43,8.25.85,10.77,1.28,5.31.9,9.32,2.26,12.05,4.07l.86.63h-1.18c-5.38.11-12.81,1.71-22.28,4.79-8.9,3.03-17.44,6.81-25.62,11.33-11.19,6.33-17.76,12.63-19.69,18.9-.22.59-.33,1.49-.33,2.72v.87c0,.59.06,1.15.17,1.68.1.53.34,1.14.69,1.83,2.23,3.78,6.71,5.88,13.46,6.3.72.06,1.4.08,2.04.08,3.45,0,6.93-.45,10.44-1.35,6.53-1.65,13.19-4.46,19.97-8.42,6.78-3.96,12.9-8.6,18.35-13.92,5.52-5.47,8.93-10.47,10.22-14.99.15-.54.24-1,.27-1.4.04-.4.06-1.05.06-1.95,0-.8-.02-1.4-.06-1.8-.03-.4-.09-.78-.16-1.16-1-3.19-3.48-5.74-7.43-7.65-2.22-1.12-5.04-2.05-8.44-2.79-3.41-.75-7.99-1.41-13.73-2-8.89-.9-15.14-2.07-18.72-3.51-2.59-1.01-4.13-2.1-4.63-3.27-.15-.37-.22-.77-.22-1.2,0-.47.07-.93.22-1.35.57-1.33,1.72-2.85,3.44-4.55,3.66-3.35,10.48-8.11,20.45-14.28,21.6-13.24,39.14-21.4,52.63-24.49,1.01-.21,2.01-.37,3.02-.47.71-.11,1.29-.16,1.72-.16h.43c.86,0,1.29.37,1.29,1.11,0,1.39-1.08,3.62-3.23,6.7-1.36,2.13-3.14,4.56-5.33,7.3s-5.32,6.5-9.41,11.29c-1.27,1.52-2.39,2.86-3.39,4.02-3.26.27-6.46.58-9.63.92-2.82.32-5.58.68-8.3,1.07-2.72.39-5.49.84-8.31,1.36-1.07.2-2.13.41-3.17.64-1.04.22-2.1.47-3.17.73-.47.06-.91.29-1.31.68-.6.58-.67,1.24-.2,1.95.13.33.4.55.8.68.41.13.78.13,1.11,0,.54-.13,1.01-.19,1.41-.19.74-.13,1.43-.25,2.07-.34.63-.1,1.32-.21,2.06-.35,1.14-.19,2.23-.39,3.27-.58,1.04-.2,2.13-.39,3.27-.59,2.35-.32,4.68-.64,7-.97,2.32-.32,4.65-.58,7-.78.88-.08,1.77-.15,2.66-.23-.2.22-.38.43-.55.63-.75.88-1.31,1.56-1.67,2.04-.36.48-.59.82-.69,1.03-.11.22-.17.38-.17.48,0,.27.18.46.54.56h.22c.36,0,.68-.08.97-.24.57-.48,1.65-1.54,3.22-3.19.49-.51.99-1.04,1.52-1.58.15-.02.29-.03.44-.04,2.18-.16,4.35-.3,6.49-.43,2.35-.13,4.69-.23,7-.3,2.32-.06,4.65-.16,7-.29.74-.06,1.49-.08,2.26-.05.77.04,1.6.05,2.47.05-.14.13-.24.24-.3.34-.07.1-.14.21-.2.34-3.23,3.97-6.23,8.04-9.01,12.24-2.79,4.19-5.36,8.52-7.71,13.01-1.14,2.08-2.18,4.19-3.12,6.33-.94,2.15-1.68,4.36-2.21,6.63-.27,1.04-.49,2.08-.66,3.12-.16,1.04-.21,2.11-.15,3.22.07,1.1.37,2.21.91,3.31,1.14,2.28,2.98,3.45,5.54,3.51,1.07,0,2.09-.13,3.07-.39.97-.26,1.96-.58,2.97-.97,1.54-.65,3.03-1.4,4.48-2.24,1.44-.85,2.83-1.73,4.17-2.64,2.42-1.69,4.75-3.47,7-5.36,2.25-1.88,4.48-3.8,6.7-5.75.2-.16.38-.32.57-.47-.03.08-.05.15-.07.23-.47,1.62-.77,3.31-.91,5.07-.13,1.43.1,2.79.71,4.09.73,1.56,1.94,2.53,3.62,2.92.47.14.94.18,1.41.15.47-.03.94-.08,1.41-.15,1.01-.19,1.95-.48,2.82-.87.87-.39,1.71-.85,2.52-1.37,2.28-1.43,4.46-3.05,6.54-4.87,1.54-1.5,3.12-2.96,4.73-4.39,1.61-1.43,3.19-2.86,4.73-4.29.27-.26.47-.42.61-.48h.1c-.14.39-.24.65-.3.78-.34.91-.66,1.78-.96,2.63-.3.84-.62,1.72-.96,2.63-.33,1.04-.58,2.08-.75,3.12-.17,1.04-.19,2.11-.05,3.22.06.58.15,1.17.25,1.75.1.59.28,1.14.55,1.66.47.91,1.08,1.67,1.82,2.29.73.62,1.64.99,2.71,1.12.94.13,1.82.13,2.62,0,1.01-.13,1.98-.36,2.92-.68.94-.33,1.88-.72,2.82-1.17,1.48-.72,2.88-1.5,4.23-2.34,1.34-.85,2.68-1.72,4.02-2.63,1.51-1.05,2.99-2.16,4.45-3.33-.11.52-.2,1.04-.27,1.57-.07.72-.07,1.4,0,2.05s.27,1.3.61,1.95c.47,1.17,1.19,2.06,2.16,2.68.97.62,2.06.86,3.27.73.87-.06,1.81-.33,2.82-.78.81-.33,1.56-.72,2.27-1.17.7-.45,1.42-.94,2.16-1.46,1.68-1.24,3.21-2.59,4.58-4.05,1.38-1.46,2.74-2.97,4.08-4.53l.91-1.17h.1c-.07.46-.14.89-.21,1.32-.06.42-.13.89-.2,1.41-.33,1.88-.2,3.7.41,5.46.53,1.49,1.41,2.6,2.61,3.31,1.21.72,2.62,1.01,4.23.88,1.68-.2,3.39-.65,5.14-1.37,1.54-.64,3.02-1.39,4.43-2.24,1.41-.84,2.78-1.72,4.12-2.63,2.69-1.88,5.27-3.85,7.76-5.9.89-.73,1.77-1.47,2.65-2.23-.22,1.03-.33,2.12-.33,3.24v.87c0,.26.03.56.1.88.07.33.12.62.15.88.04.26.12.55.25.87.54,1.56,1.41,2.73,2.62,3.51,1.21.78,2.65,1.08,4.33.88,2.01-.19,3.96-.75,5.84-1.66,1.41-.65,2.75-1.34,4.03-2.09,1.27-.75,2.55-1.58,3.82-2.49,2.28-1.6,4.47-3.26,6.58-4.98-.06.17-.13.34-.19.52-.34.91-.59,1.85-.76,2.83-.17.97-.18,1.95-.05,2.92.13,1.3.57,2.47,1.31,3.51.94,1.17,2.15,1.85,3.62,2.05.87,0,1.75-.1,2.62-.3,1.27-.38,2.52-.97,3.73-1.75.93-.65,1.86-1.32,2.76-2,.91-.68,1.77-1.41,2.57-2.19,1.48-1.37,2.84-2.79,4.08-4.29,1.24-1.49,2.47-3.05,3.67-4.68.14-.19.27-.37.41-.53.13-.17.36-.25.7-.25l.15-.05.15-.05c.54-.32.84-.71.91-1.17.2-1.03.67-2.01,1.41-2.92.47-.58.9-1.18,1.31-1.8.4-.62.8-1.22,1.21-1.81l.4-.39.3.1c2.28,1.24,4.63,2.05,7.05,2.44,2.41.39,4.9.45,7.45.19,1-.13,1.87-.35,2.61-.68.81-.52,1.31-1.14,1.51-1.85,0-.33-.01-.63-.05-.93ZM634.58,322.86c5.16-9.16,11.31-17.87,18.42-26.12,1.81-2.21,3.68-4.34,5.59-6.38,1.91-2.05,3.87-4.11,5.89-6.19,2.41-2.6,5.3-4.65,8.66-6.14.33-.13.65-.25.95-.35.3-.09.62-.21.96-.34h.4c.67-.06.97.2.91.78-.07.39-.14.78-.2,1.17-.07.39-.17.75-.31,1.08-.33.91-.72,1.78-1.15,2.63-.44.84-.93,1.69-1.46,2.53-1.01,1.63-2.1,3.15-3.28,4.58-1.17,1.43-2.36,2.86-3.57,4.29-3.62,4.1-7.37,8.03-11.23,11.8-3.86,3.77-7.93,7.37-12.23,10.82-1.34,1.1-2.7,2.16-4.07,3.16-1.38,1.01-2.74,2.07-4.08,3.17-.14.07-.27.16-.4.29l-.1-.09c.13-.26.23-.49.3-.69ZM498.83,333.74c.32.48.59.98.81,1.51.35.91.53,1.87.53,2.88,0,2.87-1.36,6.14-4.09,9.81-5.74,7.44-13.85,14.14-24.32,20.1-8.61,4.73-16.58,7.52-23.89,8.37-1.15.11-2.41.16-3.77.16s-2.48-.05-3.34-.16c-4.45-.58-7.17-2.2-8.18-4.86-.21-.53-.32-1.25-.32-2.15s.11-1.63.32-2.32c2.15-7.12,10.37-14.38,24.65-21.77,13.63-6.81,25.83-10.91,36.59-12.29.79-.05,1.63-.09,2.53-.12.9-.03,1.49-.01,1.78.04.14.05.37.32.7.8ZM625.32,328.91c-.07.58-.34,1.14-.81,1.65-1.07,1.37-2.11,2.73-3.12,4.1-1.01,1.36-2.08,2.7-3.22,3.99-1.08,1.24-2.2,2.41-3.38,3.51-1.17,1.11-2.43,2.12-3.77,3.03-1.01.78-1.98,1.3-2.92,1.55-.27.2-.57.3-.91.3-1.07.19-1.78-.2-2.11-1.17-.14-.52-.2-1.01-.2-1.46s.03-.95.1-1.47c.27-1.42.69-2.79,1.26-4.09.28-.65.6-1.28.94-1.9t.01-.02c.35-.61.71-1.2,1.11-1.78.94-1.43,1.96-2.75,3.07-3.95.7-.75,1.45-1.45,2.27-2.08.48-.39.99-.75,1.51-1.09.8-.58,1.66-1.09,2.56-1.51.91-.42,1.87-.7,2.87-.83.27-.06.51-.11.71-.15.2-.03.43-.04.7-.04.94,0,1.71.16,2.32.48.6.2.94.59,1.01,1.17.06.59.06,1.17,0,1.76ZM705.55,325.25c-.03.29-.08.6-.15.93,0,.19-.1.36-.3.49-1.14,1.49-2.25,2.97-3.32,4.43-1.08,1.46-2.22,2.88-3.43,4.24-1.14,1.24-2.3,2.42-3.47,3.56-1.17,1.14-2.5,2.16-3.98,3.07-.4.32-.82.58-1.25.78-.44.19-.89.42-1.36.68h-.21c-1.74.65-2.75.03-3.02-1.85v-.59c.14-1.42.37-2.66.71-3.7,1.81-5.2,4.93-9.39,9.36-12.57,1.55-1.11,3.36-1.92,5.44-2.44.54-.13,1.11-.2,1.71-.2s1.17.1,1.71.3c.61.19,1.01.42,1.21.68s.3.68.3,1.27c.07.32.09.63.05.92Z"/>
  <path class="cls-13" d="M777.59,305.68c-.35.43-.68.86-1.01,1.29-.49.64-1.29,1-2.06.54-.63-.38-1.03-1.4-.53-2.05.66-.86,1.35-1.72,2.07-2.57.03.44.04.89.04,1.34,0,.97.74,1.45,1.49,1.45Z"/>
  <path class="cls-14" d="M806.24,296.59c-2.39-2.6-5.86-4.04-9.33-4.47-7.2-.9-13.26,2.9-18.14,7.82-.88-5.47-3.48-10.62-7.37-14.6-4.76-4.88-13.43-9.6-19.9-5.1-5.92,4.12-6.85,12.67-7.14,19.26-.38,8.68,1.18,17.37,3.64,25.67,2.62,8.84,6.24,17.34,9.99,25.76-2.7,1.13-5.44,2.14-8.23,3.03-1.83.58-1.04,3.48.8,2.89,2.99-.96,5.94-2.05,8.82-3.27.73.48,1.82-.05,2.14-.92,12.27-5.49,23.49-13.31,32.86-22.97,3.01-3.1,5.81-6.39,8.42-9.84,2.72-3.6,5.38-7.59,6.27-12.09.79-4-.02-8.12-2.83-11.17ZM806,307.76c-1.03,4.07-3.52,7.61-6.03,10.89-2.43,3.18-5.06,6.2-7.85,9.06-5.48,5.64-11.6,10.63-18.22,14.88-4.22,2.7-8.62,5.1-13.18,7.15-6.19-13.91-12.37-28.45-13.3-43.82-.23-3.84-.14-7.73.4-11.54.42-3.03,1.11-6.13,2.71-8.77,1.69-2.76,4.36-4.35,7.64-4.11,3.36.25,6.65,2.08,9.21,4.2,5.13,4.27,8.35,10.56,8.68,17.19.03.44.04.89.04,1.34,0,.97.74,1.45,1.49,1.45.49-.6.99-1.2,1.51-1.79,4.14-4.71,9.43-8.98,15.86-8.91,3.03.03,6.24,1,8.51,3.08,2.73,2.51,3.42,6.18,2.53,9.7Z"/>
  <path class="cls-13" d="M779.1,303.89v.34c0,.97-.76,1.45-1.51,1.45.49-.6.99-1.2,1.51-1.79Z"/>
  <g>
    <path class="cls-16" d="M511.66,13.99c.33-1.18.33-2.43.08-3.63s-.79-3.45-1.38-4.45c-1.89-3.24-5.41-5.41-9.43-5.41-5.16,0-9.49,3.58-10.63,8.39-.96-5.06-5.41-8.89-10.75-8.89-3.26,0-6.19,1.43-8.18,3.7-.9,1.01-1.61,2.18-2.09,3.47h0c-.43,1.18-.67,2.45-.67,3.77,0,6.83,4.34,13.69,9.18,18l12.88,14.74.38-.43,14.19-16c3.06-4.11,5.02-8.22,6.43-13.26ZM490.67,42.92l-.38-.33.38-.43.37.43-.37.33Z"/>
    <polygon class="cls-16" points="491.04 42.59 490.67 42.92 490.29 42.59 490.67 42.16 491.04 42.59"/>
  </g>
  <g>
    <path class="cls-16" d="M225.9,412.93c.12-.42.12-.87.03-1.3s-.28-1.23-.5-1.59c-.68-1.16-1.94-1.94-3.38-1.94-1.85,0-3.4,1.28-3.81,3-.34-1.81-1.94-3.18-3.85-3.18-1.17,0-2.22.51-2.93,1.33-.32.36-.58.78-.75,1.24h0c-.15.42-.24.88-.24,1.35,0,2.45,1.56,4.9,3.29,6.45l4.61,5.28.14-.15,5.08-5.73c1.1-1.47,1.8-2.94,2.3-4.75ZM218.38,423.29l-.14-.12.14-.15.13.15-.13.12Z"/>
    <polygon class="cls-16" points="218.51 423.18 218.38 423.29 218.24 423.18 218.38 423.02 218.51 423.18"/>
  </g>
  <g>
    <path class="cls-16" d="M765.58,412.93c.12-.42.12-.87.03-1.3s-.28-1.23-.5-1.59c-.68-1.16-1.94-1.94-3.38-1.94-1.85,0-3.4,1.28-3.81,3-.34-1.81-1.94-3.18-3.85-3.18-1.17,0-2.22.51-2.93,1.33-.32.36-.58.78-.75,1.24h0c-.15.42-.24.88-.24,1.35,0,2.45,1.56,4.9,3.29,6.45l4.61,5.28.14-.15,5.08-5.73c1.1-1.47,1.8-2.94,2.3-4.75ZM758.07,423.29l-.14-.12.14-.15.13.15-.13.12Z"/>
    <polygon class="cls-16" points="758.2 423.18 758.07 423.29 757.93 423.18 758.07 423.02 758.2 423.18"/>
  </g>
  <line class="cls-1" x1=".41" y1="390.46" x2="980.93" y2="390.4"/>
  <line class="cls-12" x1="0" y1="450.05" x2="980.52" y2="449.99"/>
</svg>